<svg width="1025" height="1025" viewBox="0 0 1025 1025" fill="none" xmlns="http://www.w3.org/2000/svg">
<path fill-rule="evenodd" clip-rule="evenodd" d="M479.264 73.6595H528.816C547.368 73.6832 565.522 79.2982 580.834 89.7719C596.134 100.237 607.927 115.067 614.677 132.329L637.341 189.943L706.224 229.709L767.31 220.418C785.679 217.646 804.49 220.473 821.222 228.541C837.947 236.604 851.847 249.52 861.12 265.603L885.829 308.372C895.127 324.456 899.349 342.969 897.959 361.493C896.568 380.017 889.615 397.69 878.022 412.202L839.502 460.466V540.212L877.795 588.45C889.375 602.956 896.341 620.651 897.731 639.16C899.128 657.683 894.899 676.196 885.608 692.282L860.911 735.018C851.639 751.099 837.713 764.051 820.994 772.11C804.263 780.182 785.489 783.014 767.121 780.239L705.997 770.947L637.01 810.769L614.468 868.277C607.718 885.546 595.909 900.413 580.608 910.881C565.296 921.355 547.182 926.968 528.631 926.993H479.152C460.599 926.968 442.446 921.355 427.134 910.881C411.823 900.407 400.024 885.565 393.276 868.284L370.731 810.769L301.745 770.947L240.659 780.232C222.291 783.007 203.477 780.182 186.745 772.11C170.026 764.051 156.125 751.137 146.855 735.063L122.136 692.282C112.842 676.196 108.615 657.683 110.008 639.16C111.401 620.641 118.345 602.974 129.934 588.464L168.464 540.186V460.466L129.945 412.202C118.356 397.692 111.401 380.011 110.008 361.493C108.615 342.97 112.842 324.456 122.136 308.373L146.832 265.634C156.102 249.546 170.019 236.605 186.745 228.541C203.477 220.473 222.254 217.64 240.622 220.412L301.567 229.705L370.75 189.655L393.412 132.307C400.164 115.054 411.953 100.232 427.246 89.7719C442.559 79.2982 460.713 73.6832 479.264 73.6595ZM503.977 626.746C573.796 626.746 630.396 570.146 630.396 500.326C630.396 430.507 573.796 373.906 503.977 373.906C434.157 373.906 377.557 430.507 377.557 500.326C377.557 570.146 434.157 626.746 503.977 626.746Z" stroke="#FEFEFE" stroke-width="54.8083"/>
</svg>
