<svg width="1025" height="1024" viewBox="0 0 1025 1024" fill="none" xmlns="http://www.w3.org/2000/svg">
<path fill-rule="evenodd" clip-rule="evenodd" d="M479.264 73.1425H528.816C547.368 73.1662 565.522 78.7812 580.834 89.2549C596.134 99.7198 607.927 114.55 614.677 131.812L637.341 189.426L706.224 229.192L767.31 219.901C785.679 217.129 804.49 219.956 821.222 228.024C837.947 236.087 851.847 249.003 861.12 265.086L885.829 307.855C895.127 323.939 899.349 342.452 897.959 360.976C896.568 379.5 889.615 397.173 878.022 411.685L839.502 459.949V539.695L877.795 587.933C889.375 602.439 896.341 620.134 897.731 638.643C899.128 657.166 894.899 675.679 885.608 691.765L860.911 734.501C851.639 750.582 837.713 763.534 820.994 771.593C804.263 779.665 785.489 782.496 767.121 779.722L705.997 770.43L637.01 810.252L614.468 867.76C607.718 885.029 595.909 899.896 580.608 910.364C565.296 920.838 547.182 926.451 528.631 926.476H479.152C460.599 926.451 442.446 920.838 427.134 910.364C411.823 899.89 400.024 885.048 393.276 867.767L370.731 810.252L301.745 770.43L240.659 779.715C222.291 782.49 203.477 779.665 186.745 771.593C170.026 763.534 156.125 750.62 146.855 734.545L122.136 691.765C112.842 675.679 108.615 657.166 110.008 638.643C111.401 620.124 118.345 602.457 129.934 587.947L168.464 539.669V459.949L129.945 411.685C118.356 397.175 111.401 379.494 110.008 360.976C108.615 342.453 112.842 323.939 122.136 307.856L146.832 265.117C156.102 249.029 170.019 236.088 186.745 228.024C203.477 219.956 222.254 217.123 240.622 219.895L301.567 229.188L370.75 189.138L393.412 131.79C400.164 114.537 411.953 99.7153 427.246 89.2549C442.559 78.7812 460.713 73.1662 479.264 73.1425ZM503.977 626.229C573.796 626.229 630.396 569.629 630.396 499.809C630.396 429.99 573.796 373.389 503.977 373.389C434.157 373.389 377.557 429.99 377.557 499.809C377.557 569.629 434.157 626.229 503.977 626.229Z" stroke="#21262E" stroke-width="54.8083"/>
</svg>
