<svg width="1025" height="1024" viewBox="0 0 1025 1024" fill="none" xmlns="http://www.w3.org/2000/svg">
<path d="M512.036 140.034C631.284 140.034 726.099 173.219 786.999 237.037C850.452 300.49 884.002 395.669 884.002 512C884.002 628.33 850.816 726.062 786.999 786.963C723.546 850.416 628.366 883.965 512.036 883.965C395.705 883.965 297.973 850.78 237.073 786.963C173.62 723.51 140.07 628.33 140.07 512C140.07 395.669 173.62 300.49 237.073 237.037C300.526 173.584 395.705 140.034 512.036 140.034ZM512.036 85.3331C380.754 85.3331 271.352 125.447 198.418 198.382C125.483 271.316 85.3691 380.718 85.3691 512C85.3691 643.282 125.483 752.683 198.418 825.618C271.352 902.199 380.754 938.666 512.036 938.666C643.318 938.666 752.72 898.552 825.654 825.618C902.235 752.683 938.703 643.282 938.703 512C938.703 380.718 898.589 271.316 825.654 198.382C752.72 121.8 643.318 85.3331 512.036 85.3331Z" fill="#21262E"/>
<path d="M615.229 666.985C607.935 666.985 600.642 663.338 593.348 659.691L498.534 564.876C494.887 561.23 491.24 550.29 491.24 542.996V386.187C491.24 371.6 505.827 357.013 520.414 357.013C535.001 357.013 549.588 371.6 549.588 386.187V532.056L637.109 619.577C648.049 630.517 648.049 648.751 637.109 659.691C629.816 663.338 622.522 666.985 615.229 666.985Z" fill="#21262E"/>
</svg>
