<svg width="1025" height="1025" viewBox="0 0 1025 1025" fill="none" xmlns="http://www.w3.org/2000/svg">
<path d="M512.036 140.552C631.284 140.552 726.099 173.737 786.999 237.555C850.452 301.008 884.002 396.187 884.002 512.518C884.002 628.848 850.816 726.58 786.999 787.48C723.546 850.933 628.366 884.483 512.036 884.483C395.705 884.483 297.973 851.298 237.073 787.48C173.62 724.028 140.07 628.848 140.07 512.518C140.07 396.187 173.62 301.008 237.073 237.555C300.526 174.102 395.705 140.552 512.036 140.552ZM512.036 85.851C380.754 85.851 271.352 125.965 198.418 198.899C125.483 271.834 85.3691 381.236 85.3691 512.518C85.3691 643.8 125.483 753.201 198.418 826.136C271.352 902.717 380.754 939.184 512.036 939.184C643.318 939.184 752.72 899.07 825.654 826.136C902.235 753.201 938.703 643.8 938.703 512.518C938.703 381.236 898.589 271.834 825.654 198.899C752.72 122.318 643.318 85.851 512.036 85.851Z" fill="#FAFDFE"/>
<path d="M615.229 667.505C607.935 667.505 600.642 663.858 593.348 660.211L498.534 565.396C494.887 561.75 491.24 550.81 491.24 543.516V386.707C491.24 372.12 505.827 357.533 520.414 357.533C535.001 357.533 549.588 372.12 549.588 386.707V532.576L637.109 620.097C648.049 631.037 648.049 649.271 637.109 660.211C629.816 663.858 622.522 667.505 615.229 667.505Z" fill="#FAFDFE"/>
</svg>
