<svg width="33" height="33" viewBox="0 0 33 33" fill="none" xmlns="http://www.w3.org/2000/svg">
<rect width="33" height="33" rx="5" fill="#FF9934"/>
<path d="M24 12.4356C24.0024 11.0264 23.5995 9.64559 22.8383 8.45465C22.0771 7.26371 20.9891 6.31182 19.7015 5.71027C18.4139 5.10872 16.9799 4.88236 15.5671 5.05765C14.1543 5.23295 12.8211 5.80265 11.7234 6.70016C10.6257 7.59767 9.80874 8.78591 9.36813 10.126C8.92752 11.466 8.88143 12.9025 9.23524 14.2676C9.58905 15.6326 10.3281 16.8697 11.3661 17.8344C12.4041 18.799 13.6981 19.4513 15.0968 19.715C15.1506 19.7292 15.1984 19.7601 15.2333 19.8032C15.2681 19.8463 15.2881 19.8993 15.2903 19.9544V22.4926C15.2903 22.5561 15.2648 22.617 15.2195 22.6619C15.1741 22.7068 15.1125 22.7321 15.0484 22.7321H13.5968C13.2759 22.7321 12.9683 22.8582 12.7414 23.0827C12.5145 23.3073 12.3871 23.6118 12.3871 23.9293C12.3871 24.2468 12.5145 24.5514 12.7414 24.7759C12.9683 25.0004 13.2759 25.1266 13.5968 25.1266H15.0484C15.1125 25.1266 15.1741 25.1518 15.2195 25.1967C15.2648 25.2416 15.2903 25.3025 15.2903 25.366V26.8027C15.2903 27.1203 15.4178 27.4248 15.6446 27.6493C15.8715 27.8739 16.1792 28 16.5 28C16.8208 28 17.1285 27.8739 17.3554 27.6493C17.5822 27.4248 17.7097 27.1203 17.7097 26.8027V25.366C17.7097 25.3025 17.7352 25.2416 17.7805 25.1967C17.8259 25.1518 17.8874 25.1266 17.9516 25.1266H19.4032C19.724 25.1266 20.0317 25.0004 20.2586 24.7759C20.4854 24.5514 20.6129 24.2468 20.6129 23.9293C20.6129 23.6118 20.4854 23.3073 20.2586 23.0827C20.0317 22.8582 19.724 22.7321 19.4032 22.7321H17.9516C17.8874 22.7321 17.8259 22.7068 17.7805 22.6619C17.7352 22.617 17.7097 22.5561 17.7097 22.4926V19.9544C17.7119 19.8993 17.7319 19.8463 17.7667 19.8032C17.8015 19.7601 17.8494 19.7292 17.9032 19.715C19.6159 19.3921 21.1614 18.4888 22.2741 17.1603C23.3868 15.8318 23.997 14.1612 24 12.4356ZM11.4193 12.4356C11.4193 11.4411 11.7173 10.4689 12.2756 9.64193C12.8339 8.815 13.6273 8.17048 14.5557 7.78989C15.4841 7.40929 16.5056 7.30971 17.4912 7.50374C18.4767 7.69776 19.382 8.17668 20.0925 8.87993C20.8031 9.58317 21.287 10.4792 21.483 11.4546C21.679 12.43 21.5784 13.4411 21.1939 14.3599C20.8094 15.2788 20.1582 16.0641 19.3226 16.6167C18.4871 17.1692 17.5048 17.4641 16.5 17.4641C15.1533 17.4616 13.8625 16.931 12.9103 15.9885C11.958 15.046 11.4219 13.7685 11.4193 12.4356Z" fill="white"/>
</svg>
