<svg width="33" height="34" viewBox="0 0 33 34" fill="none" xmlns="http://www.w3.org/2000/svg">
<rect y="0.5" width="33" height="33" rx="5" fill="#B3B3B2"/>
<path d="M16.5108 21.697C16.1882 21.697 15.9168 21.5944 15.6968 21.389C15.4915 21.169 15.3888 20.8977 15.3888 20.575C15.3888 20.003 15.5355 19.3797 15.8288 18.705C16.1222 18.0157 16.5768 17.407 17.1928 16.879C17.6035 16.527 17.9775 16.1824 18.3148 15.845C18.6668 15.493 18.9455 15.097 19.1508 14.657C19.3708 14.2024 19.4808 13.6524 19.4808 13.007C19.4808 12.5377 19.3708 12.0977 19.1508 11.687C18.9308 11.2764 18.6155 10.9464 18.2048 10.697C17.8088 10.433 17.3175 10.301 16.7308 10.301C16.0122 10.301 15.4182 10.433 14.9488 10.697C14.4795 10.961 14.1275 11.3277 13.8928 11.797C13.6728 12.2664 13.5628 12.8164 13.5628 13.447C13.5628 13.7697 13.4602 14.041 13.2548 14.261C13.0495 14.4664 12.7782 14.569 12.4408 14.569C12.1182 14.569 11.8468 14.4664 11.6268 14.261C11.4215 14.041 11.3188 13.7697 11.3188 13.447C11.3188 12.4204 11.5388 11.5184 11.9788 10.741C12.4335 9.9637 13.0642 9.35503 13.8708 8.91503C14.6922 8.46037 15.6455 8.23303 16.7308 8.23303C17.6842 8.23303 18.5275 8.43837 19.2608 8.84903C20.0088 9.24503 20.5955 9.80237 21.0208 10.521C21.4608 11.225 21.6808 12.0537 21.6808 13.007C21.6808 13.8284 21.5488 14.5397 21.2848 15.141C21.0208 15.7424 20.6615 16.285 20.2068 16.769C19.7522 17.2384 19.2315 17.7077 18.6448 18.177C18.2635 18.485 17.9995 18.8884 17.8528 19.387C17.7062 19.871 17.6328 20.267 17.6328 20.575C17.6328 20.8977 17.5302 21.169 17.3248 21.389C17.1195 21.5944 16.8482 21.697 16.5108 21.697ZM16.5108 25.767C16.1002 25.767 15.7408 25.6204 15.4328 25.327C15.1395 25.019 14.9928 24.6597 14.9928 24.249C14.9928 23.8237 15.1395 23.4644 15.4328 23.171C15.7408 22.863 16.1002 22.709 16.5108 22.709C16.9362 22.709 17.2955 22.863 17.5888 23.171C17.8968 23.4644 18.0508 23.8237 18.0508 24.249C18.0508 24.6597 17.8968 25.019 17.5888 25.327C17.2955 25.6204 16.9362 25.767 16.5108 25.767Z" fill="white"/>
</svg>
