<svg width="1025" height="1025" viewBox="0 0 1025 1025" fill="none" xmlns="http://www.w3.org/2000/svg">
<rect x="0.0332031" y="0.516602" width="1024" height="1024" rx="512" fill="#03C988"/>
<path d="M765.619 369.568L486.624 728.645C478.874 738.978 465.957 744.145 450.458 744.145C437.541 744.145 427.208 741.561 419.458 731.228L243.795 555.565C233.461 547.815 228.295 537.482 228.295 527.148C228.295 516.815 233.461 503.899 241.211 496.149C248.961 488.399 259.294 483.233 272.211 483.233C282.544 483.233 295.46 488.399 303.21 496.149L447.874 640.813L701.036 317.902C713.953 299.819 737.202 297.236 755.286 304.986L760.452 310.152C770.785 317.902 775.952 328.235 775.952 338.568C775.952 348.902 773.369 359.235 765.619 369.568Z" fill="white"/>
</svg>
