<svg width="1024" height="1024" viewBox="0 0 1024 1024" fill="none" xmlns="http://www.w3.org/2000/svg">
<rect width="1024" height="1024" rx="180" fill="white"/>
<path d="M845.422 0H178.626C79.9963 0 0 79.9963 0 178.626V845.422C0 944.052 79.9963 1024 178.626 1024H845.422C944.052 1024 1024 944.052 1024 845.422V178.626C1024 79.9963 944.052 0 845.422 0ZM587.278 308.489C593.984 280.705 608.834 256.563 628.761 240.372C648.688 224.133 675.13 214.984 702.626 221.594C730.121 228.205 749.474 248.467 759.821 271.987C770.168 295.459 772.371 323.721 765.665 351.504C758.958 379.288 744.109 403.43 724.182 419.621C704.254 435.86 677.813 445.009 650.317 438.399C622.821 431.788 603.469 411.526 593.122 388.006C582.775 364.534 580.572 336.272 587.278 308.489ZM357.157 252.97C363.863 225.187 378.713 201.044 398.64 184.854C418.567 168.615 445.009 159.466 472.505 166.076C500.001 172.687 519.353 192.949 529.7 216.469C540.047 239.941 542.25 268.203 535.544 295.986C528.838 323.769 513.988 347.912 494.061 364.103C474.133 380.341 447.692 389.491 420.196 382.88C392.7 376.27 373.348 356.007 363.001 332.487C352.702 309.016 350.451 280.753 357.157 252.97ZM204.637 547.328C148.209 533.724 125.551 470.397 138.485 416.651C151.466 362.905 200.47 316.919 256.946 330.523C313.375 344.128 336.032 407.454 323.099 461.2C310.117 514.946 261.114 560.932 204.637 547.328ZM666.508 760.443V760.683H666.46C654.245 808.25 615.827 848.775 569.554 858.116C546.034 862.858 520.934 859.409 497.318 845.134C477.63 833.254 459.667 814.237 444.339 787.508C418.519 804.322 393.85 813.04 370.905 814.669C343.361 816.632 319.458 808.25 300.681 793.304C263.748 763.892 248.084 710.338 258.91 662.388V662.149H258.958C275.772 592.499 332.104 540.765 386.425 508.048C413.873 491.522 441.512 479.355 464.888 471.882C476.577 468.146 487.45 465.463 496.839 464.026C505.797 462.685 514.946 462.206 522.419 464.026C529.891 465.846 537.795 470.397 545.172 475.714C552.884 481.271 561.315 488.6 570.033 497.27C587.422 514.611 606.534 538.035 623.396 565.243C656.832 619.133 683.369 690.842 666.556 760.491L666.508 760.443ZM885.611 596.954C872.63 650.7 823.626 696.686 767.15 683.082C710.721 669.478 688.064 606.151 700.997 552.405C713.979 498.659 762.982 452.673 819.459 466.278C875.887 479.882 898.593 543.208 885.611 596.954Z" fill="#3C32CE"/>
</svg>
