<svg width="33" height="34" viewBox="0 0 33 34" fill="none" xmlns="http://www.w3.org/2000/svg">
<rect y="0.5" width="33" height="33" rx="5" fill="#FF9934"/>
<path d="M24 12.9356C24.0024 11.5264 23.5995 10.1456 22.8383 8.95465C22.0771 7.76371 20.9891 6.81182 19.7015 6.21027C18.4139 5.60872 16.9799 5.38236 15.5671 5.55765C14.1543 5.73295 12.8211 6.30265 11.7234 7.20016C10.6257 8.09767 9.80874 9.28591 9.36813 10.626C8.92752 11.966 8.88143 13.4025 9.23524 14.7676C9.58905 16.1326 10.3281 17.3697 11.3661 18.3344C12.4041 19.299 13.6981 19.9513 15.0968 20.215C15.1506 20.2292 15.1984 20.2601 15.2333 20.3032C15.2681 20.3463 15.2881 20.3993 15.2903 20.4544V22.9926C15.2903 23.0561 15.2648 23.117 15.2195 23.1619C15.1741 23.2068 15.1125 23.2321 15.0484 23.2321H13.5968C13.2759 23.2321 12.9683 23.3582 12.7414 23.5827C12.5145 23.8073 12.3871 24.1118 12.3871 24.4293C12.3871 24.7468 12.5145 25.0514 12.7414 25.2759C12.9683 25.5004 13.2759 25.6266 13.5968 25.6266H15.0484C15.1125 25.6266 15.1741 25.6518 15.2195 25.6967C15.2648 25.7416 15.2903 25.8025 15.2903 25.866V27.3027C15.2903 27.6203 15.4178 27.9248 15.6446 28.1493C15.8715 28.3739 16.1792 28.5 16.5 28.5C16.8208 28.5 17.1285 28.3739 17.3554 28.1493C17.5822 27.9248 17.7097 27.6203 17.7097 27.3027V25.866C17.7097 25.8025 17.7352 25.7416 17.7805 25.6967C17.8259 25.6518 17.8874 25.6266 17.9516 25.6266H19.4032C19.724 25.6266 20.0317 25.5004 20.2586 25.2759C20.4854 25.0514 20.6129 24.7468 20.6129 24.4293C20.6129 24.1118 20.4854 23.8073 20.2586 23.5827C20.0317 23.3582 19.724 23.2321 19.4032 23.2321H17.9516C17.8874 23.2321 17.8259 23.2068 17.7805 23.1619C17.7352 23.117 17.7097 23.0561 17.7097 22.9926V20.4544C17.7119 20.3993 17.7319 20.3463 17.7667 20.3032C17.8015 20.2601 17.8494 20.2292 17.9032 20.215C19.6159 19.8921 21.1614 18.9888 22.2741 17.6603C23.3868 16.3318 23.997 14.6612 24 12.9356ZM11.4193 12.9356C11.4193 11.9411 11.7173 10.9689 12.2756 10.1419C12.8339 9.315 13.6273 8.67048 14.5557 8.28989C15.4841 7.90929 16.5056 7.80971 17.4912 8.00374C18.4767 8.19776 19.382 8.67668 20.0925 9.37993C20.8031 10.0832 21.287 10.9792 21.483 11.9546C21.679 12.93 21.5784 13.9411 21.1939 14.8599C20.8094 15.7788 20.1582 16.5641 19.3226 17.1167C18.4871 17.6692 17.5048 17.9641 16.5 17.9641C15.1533 17.9616 13.8625 17.431 12.9103 16.4885C11.958 15.546 11.4219 14.2685 11.4193 12.9356Z" fill="white"/>
</svg>
