<svg width="1025" height="1025" viewBox="0 0 1025 1025" fill="none" xmlns="http://www.w3.org/2000/svg">
<path fill-rule="evenodd" clip-rule="evenodd" d="M368.426 146.802C337.035 146.802 310.87 163.59 293.589 186.285C276.328 208.955 266.57 238.874 266.57 270.611C266.57 302.349 276.328 332.268 293.589 354.937C310.87 377.632 337.035 394.42 368.426 394.42C399.817 394.42 425.982 377.632 443.262 354.937C460.524 332.268 470.282 302.349 470.282 270.611C470.282 238.874 460.524 208.955 443.262 186.285C425.982 163.59 399.817 146.802 368.426 146.802ZM631.292 146.802C599.902 146.802 573.737 163.59 556.456 186.285C539.195 208.955 529.436 238.874 529.436 270.611C529.436 302.349 539.195 332.268 556.456 354.937C573.737 377.632 599.902 394.42 631.292 394.42C662.684 394.42 688.848 377.632 706.127 354.937C723.388 332.268 733.147 302.349 733.147 270.611C733.147 238.874 723.388 208.955 706.127 186.285C688.848 163.59 662.684 146.802 631.292 146.802ZM821.09 380.435C756.625 380.435 715.676 442.846 715.676 504.244C715.676 565.641 756.625 628.053 821.09 628.053C885.561 628.053 926.509 565.641 926.509 504.244C926.509 442.846 885.561 380.435 821.09 380.435ZM178.593 380.435C114.124 380.435 73.1758 442.846 73.1758 504.244C73.1758 565.641 114.124 628.053 178.593 628.053C243.061 628.053 284.009 565.641 284.009 504.244C284.009 442.846 243.061 380.435 178.593 380.435ZM499.845 498.035C425.729 498.035 370.951 537.777 335.916 587.001C301.38 635.523 284.015 695.656 284.015 744.539C284.015 801.75 318.415 841.478 360.396 865.287C401.736 888.727 453.484 899.02 499.845 899.02C546.207 899.02 597.955 888.727 639.295 865.287C681.276 841.478 715.676 801.75 715.676 744.539C715.676 695.656 698.308 635.523 663.775 587.001C628.74 537.777 573.962 498.035 499.845 498.035Z" stroke="#FEFEFE" stroke-width="54.8083"/>
</svg>
