<svg width="1025" height="1024" viewBox="0 0 1025 1024" fill="none" xmlns="http://www.w3.org/2000/svg">
<path fill-rule="evenodd" clip-rule="evenodd" d="M680.218 118.048H342.937C218.753 118.048 118.082 218.719 118.082 342.903V680.185C118.082 804.368 218.753 905.039 342.937 905.039H680.218C804.402 905.039 905.073 804.368 905.073 680.184V342.903C905.073 218.719 804.402 118.048 680.218 118.048ZM342.937 73.0775C193.916 73.0775 73.1113 193.883 73.1113 342.903V680.185C73.1113 829.205 193.916 950.01 342.937 950.01H680.218C829.239 950.01 950.044 829.205 950.044 680.184V342.903C950.044 193.882 829.239 73.0775 680.218 73.0775H342.937ZM716.591 368.816H576.832C559.3 368.816 545.087 382.986 545.087 400.465C545.087 417.944 559.3 432.114 576.832 432.114H716.591C734.123 432.114 748.336 417.944 748.336 400.465C748.336 382.986 734.123 368.816 716.591 368.816ZM576.832 652.205H716.591C734.123 652.205 748.336 666.374 748.336 683.854C748.336 701.333 734.123 715.502 716.591 715.502H576.832C559.3 715.502 545.087 701.333 545.087 683.854C545.087 666.374 559.3 652.205 576.832 652.205ZM484.887 585.617C471.144 574.777 451.206 577.294 440.366 591.231L367.777 684.338L333.128 649.689C320.739 637.3 300.608 637.3 288.219 649.689C275.831 662.078 275.831 682.209 288.219 694.597L347.258 753.637C353.84 760.218 362.55 763.122 371.067 762.734C380.552 762.734 390.037 758.669 396.232 750.733L490.114 630.138C500.954 616.395 498.437 596.457 484.5 585.617H484.887ZM440.366 273.578C451.206 259.641 471.144 257.125 484.887 267.965H484.5C498.437 278.805 500.954 298.743 490.114 312.486L396.232 433.081C390.037 441.017 380.552 445.082 371.067 445.082C362.55 445.469 353.84 442.566 347.258 435.984L288.219 376.945C275.831 364.557 275.831 344.425 288.219 332.037C300.608 319.648 320.739 319.648 333.128 332.037L367.777 366.686L440.366 273.578Z" fill="#21262E"/>
<path d="M440.366 591.231L443.247 593.477L443.25 593.474L440.366 591.231ZM484.887 585.617V589.271H495.42L487.15 582.748L484.887 585.617ZM367.777 684.338L365.193 686.922L368.116 689.845L370.658 686.585L367.777 684.338ZM333.128 649.689L330.544 652.273L333.128 649.689ZM288.219 649.689L285.635 647.105L288.219 649.689ZM288.219 694.597L285.635 697.181H285.635L288.219 694.597ZM347.258 753.637L349.842 751.053L347.258 753.637ZM371.067 762.734V759.081H370.984L370.902 759.084L371.067 762.734ZM396.232 750.733L399.112 752.981L399.115 752.978L396.232 750.733ZM490.114 630.138L487.245 627.876L487.237 627.885L487.23 627.894L490.114 630.138ZM484.5 585.617V581.963H473.851L482.257 588.501L484.5 585.617ZM484.887 267.965V271.619H495.42L487.15 265.096L484.887 267.965ZM440.366 273.578L443.247 275.825L443.25 275.822L440.366 273.578ZM484.5 267.965V264.311H473.851L482.257 270.849L484.5 267.965ZM490.114 312.486L487.245 310.223L487.237 310.232L487.23 310.242L490.114 312.486ZM396.232 433.081L399.112 435.329L399.115 435.325L396.232 433.081ZM371.067 445.082V441.428H370.984L370.902 441.432L371.067 445.082ZM347.258 435.984L344.675 438.568L347.258 435.984ZM288.219 376.945L285.635 379.529L288.219 376.945ZM288.219 332.037L290.803 334.62H290.803L288.219 332.037ZM333.128 332.037L330.544 334.62L333.128 332.037ZM367.777 366.686L365.193 369.27L368.116 372.193L370.658 368.933L367.777 366.686ZM342.937 121.702H680.218V114.395H342.937V121.702ZM121.736 342.903C121.736 220.737 220.771 121.702 342.937 121.702V114.395C216.735 114.395 114.428 216.701 114.428 342.903H121.736ZM121.736 680.185V342.903H114.428V680.185H121.736ZM342.937 901.385C220.771 901.385 121.736 802.35 121.736 680.185H114.428C114.428 806.386 216.735 908.693 342.937 908.693V901.385ZM680.218 901.385H342.937V908.693H680.218V901.385ZM901.419 680.184C901.419 802.35 802.384 901.385 680.218 901.385V908.693C806.42 908.693 908.727 806.386 908.727 680.184H901.419ZM901.419 342.903V680.184H908.727V342.903H901.419ZM680.218 121.702C802.384 121.702 901.419 220.737 901.419 342.903H908.727C908.727 216.701 806.42 114.395 680.218 114.395V121.702ZM76.7652 342.903C76.7652 195.901 195.934 76.7314 342.937 76.7314V69.4236C191.898 69.4236 69.4574 191.865 69.4574 342.903H76.7652ZM76.7652 680.185V342.903H69.4574V680.185H76.7652ZM342.937 946.356C195.934 946.356 76.7652 827.187 76.7652 680.185H69.4574C69.4574 831.223 191.898 953.664 342.937 953.664V946.356ZM680.218 946.356H342.937V953.664H680.218V946.356ZM946.39 680.184C946.39 827.187 827.221 946.356 680.218 946.356V953.664C831.257 953.664 953.698 831.223 953.698 680.184H946.39ZM946.39 342.903V680.184H953.698V342.903H946.39ZM680.218 76.7314C827.221 76.7314 946.39 195.9 946.39 342.903H953.698C953.698 191.864 831.257 69.4236 680.218 69.4236V76.7314ZM342.937 76.7314H680.218V69.4236H342.937V76.7314ZM576.832 372.47H716.591V365.162H576.832V372.47ZM548.741 400.465C548.741 385.014 561.307 372.47 576.832 372.47V365.162C557.292 365.162 541.433 380.957 541.433 400.465H548.741ZM576.832 428.46C561.307 428.46 548.741 415.916 548.741 400.465H541.433C541.433 419.973 557.292 435.768 576.832 435.768V428.46ZM716.591 428.46H576.832V435.768H716.591V428.46ZM744.682 400.465C744.682 415.916 732.116 428.46 716.591 428.46V435.768C736.131 435.768 751.99 419.973 751.99 400.465H744.682ZM716.591 372.47C732.116 372.47 744.682 385.014 744.682 400.465H751.99C751.99 380.957 736.131 365.162 716.591 365.162V372.47ZM716.591 648.551H576.832V655.859H716.591V648.551ZM751.99 683.854C751.99 664.346 736.131 648.551 716.591 648.551V655.859C732.116 655.859 744.682 668.403 744.682 683.854H751.99ZM716.591 719.156C736.131 719.156 751.99 703.361 751.99 683.854H744.682C744.682 699.304 732.116 711.848 716.591 711.848V719.156ZM576.832 719.156H716.591V711.848H576.832V719.156ZM541.433 683.854C541.433 703.361 557.292 719.156 576.832 719.156V711.848C561.307 711.848 548.741 699.304 548.741 683.854H541.433ZM576.832 648.551C557.292 648.551 541.433 664.346 541.433 683.854H548.741C548.741 668.403 561.307 655.859 576.832 655.859V648.551ZM443.25 593.474C452.864 581.113 470.497 578.921 482.624 588.486L487.15 582.748C471.79 570.633 449.547 573.474 437.482 588.987L443.25 593.474ZM370.658 686.585L443.247 593.477L437.484 588.984L364.895 682.092L370.658 686.585ZM330.544 652.273L365.193 686.922L370.36 681.755L335.711 647.105L330.544 652.273ZM290.803 652.273C301.764 641.311 319.582 641.311 330.544 652.273L335.711 647.105C321.896 633.29 299.451 633.29 285.635 647.105L290.803 652.273ZM290.803 692.014C279.841 681.052 279.841 663.234 290.803 652.273L285.635 647.105C271.82 660.921 271.82 683.366 285.635 697.181L290.803 692.014ZM349.842 751.053L290.803 692.014L285.635 697.181L344.675 756.22L349.842 751.053ZM370.902 759.084C363.321 759.429 355.637 756.848 349.842 751.053L344.675 756.22C352.043 763.588 361.78 766.814 371.233 766.385L370.902 759.084ZM393.351 748.485C387.914 755.451 379.537 759.081 371.067 759.081V766.388C381.568 766.388 392.161 761.888 399.112 752.981L393.351 748.485ZM487.23 627.894L393.348 748.488L399.115 752.978L492.997 632.383L487.23 627.894ZM482.257 588.501C494.618 598.116 496.81 615.748 487.245 627.876L492.982 632.401C505.097 617.041 502.256 594.799 486.743 582.733L482.257 588.501ZM484.887 581.963H484.5V589.271H484.887V581.963ZM487.15 265.096C471.79 252.981 449.547 255.822 437.482 271.335L443.25 275.822C452.864 263.46 470.497 261.269 482.624 270.834L487.15 265.096ZM484.5 271.619H484.887V264.311H484.5V271.619ZM492.982 314.749C505.097 299.389 502.256 277.146 486.743 265.081L482.257 270.849C494.618 280.463 496.81 298.096 487.245 310.223L492.982 314.749ZM399.115 435.325L492.997 314.731L487.23 310.242L393.348 430.836L399.115 435.325ZM371.067 448.736C381.568 448.736 392.161 444.236 399.112 435.329L393.351 430.833C387.914 437.799 379.537 441.428 371.067 441.428V448.736ZM344.675 438.568C352.043 445.936 361.78 449.162 371.233 448.732L370.902 441.432C363.321 441.777 355.637 439.195 349.842 433.401L344.675 438.568ZM285.635 379.529L344.675 438.568L349.842 433.401L290.803 374.362L285.635 379.529ZM285.635 329.453C271.82 343.269 271.82 365.713 285.635 379.529L290.803 374.362C279.841 363.4 279.841 345.582 290.803 334.62L285.635 329.453ZM335.711 329.453C321.896 315.638 299.451 315.638 285.635 329.453L290.803 334.62C301.764 323.659 319.582 323.659 330.544 334.62L335.711 329.453ZM370.36 364.102L335.711 329.453L330.544 334.62L365.193 369.27L370.36 364.102ZM437.484 271.332L364.895 364.439L370.658 368.933L443.247 275.825L437.484 271.332Z" fill="#21262E"/>
</svg>
