<svg width="1025" height="1025" viewBox="0 0 1025 1025" fill="none" xmlns="http://www.w3.org/2000/svg">
<path fill-rule="evenodd" clip-rule="evenodd" d="M680.218 118.565H342.937C218.753 118.565 118.082 219.236 118.082 343.42V680.701C118.082 804.885 218.753 905.556 342.937 905.556H680.218C804.402 905.556 905.073 804.885 905.073 680.701V343.42C905.073 219.236 804.402 118.565 680.218 118.565ZM342.937 73.5942C193.916 73.5942 73.1113 194.399 73.1113 343.42V680.701C73.1113 829.722 193.916 950.527 342.937 950.527H680.218C829.239 950.527 950.044 829.721 950.044 680.701V343.42C950.044 194.399 829.239 73.5942 680.218 73.5942H342.937ZM716.591 369.333H576.832C559.3 369.333 545.087 383.503 545.087 400.982C545.087 418.461 559.3 432.631 576.832 432.631H716.591C734.123 432.631 748.336 418.461 748.336 400.982C748.336 383.503 734.123 369.333 716.591 369.333ZM576.832 652.722H716.591C734.123 652.722 748.336 666.891 748.336 684.371C748.336 701.85 734.123 716.019 716.591 716.019H576.832C559.3 716.019 545.087 701.85 545.087 684.371C545.087 666.891 559.3 652.722 576.832 652.722ZM484.887 586.134C471.144 575.294 451.206 577.811 440.366 591.748L367.777 684.855L333.128 650.206C320.739 637.818 300.608 637.818 288.219 650.206C275.831 662.595 275.831 682.726 288.219 695.115L347.258 754.154C353.84 760.735 362.55 763.639 371.067 763.252C380.552 763.252 390.037 759.187 396.232 751.25L490.114 630.655C500.954 616.912 498.437 596.974 484.5 586.134H484.887ZM440.366 274.095C451.206 260.158 471.144 257.642 484.887 268.482H484.5C498.437 279.322 500.954 299.26 490.114 313.003L396.232 433.598C390.037 441.534 380.552 445.599 371.067 445.599C362.55 445.986 353.84 443.083 347.258 436.501L288.219 377.462C275.831 365.074 275.831 344.942 288.219 332.554C300.608 320.165 320.739 320.165 333.128 332.554L367.777 367.203L440.366 274.095Z" fill="#FEFEFE"/>
<path d="M440.366 591.748L443.247 593.994L443.25 593.991L440.366 591.748ZM484.887 586.134V589.788H495.42L487.15 583.265L484.887 586.134ZM367.777 684.855L365.193 687.439L368.116 690.362L370.658 687.102L367.777 684.855ZM333.128 650.206L330.544 652.79L333.128 650.206ZM288.219 650.206L290.803 652.79H290.803L288.219 650.206ZM288.219 695.115L285.635 697.698H285.635L288.219 695.115ZM347.258 754.154L349.842 751.57L347.258 754.154ZM371.067 763.252V759.598H370.984L370.902 759.601L371.067 763.252ZM396.232 751.25L399.112 753.498L399.115 753.495L396.232 751.25ZM490.114 630.655L487.245 628.393L487.237 628.402L487.23 628.411L490.114 630.655ZM484.5 586.134V582.48H473.851L482.257 589.018L484.5 586.134ZM484.887 268.482V272.136H495.42L487.15 265.613L484.887 268.482ZM440.366 274.095L443.247 276.342L443.25 276.339L440.366 274.095ZM484.5 268.482V264.828H473.851L482.257 271.366L484.5 268.482ZM490.114 313.003L487.245 310.74L487.237 310.75L487.23 310.759L490.114 313.003ZM396.232 433.598L399.112 435.846L399.115 435.842L396.232 433.598ZM371.067 445.599V441.945H370.984L370.902 441.949L371.067 445.599ZM347.258 436.501L349.842 433.918L347.258 436.501ZM288.219 377.462L290.803 374.879H290.803L288.219 377.462ZM288.219 332.554L285.635 329.97H285.635L288.219 332.554ZM367.777 367.203L365.193 369.787L368.116 372.71L370.658 369.45L367.777 367.203ZM342.937 122.219H680.218V114.911H342.937V122.219ZM121.736 343.42C121.736 221.254 220.771 122.219 342.937 122.219V114.911C216.735 114.911 114.428 217.218 114.428 343.42H121.736ZM121.736 680.701V343.42H114.428V680.701H121.736ZM342.937 901.902C220.771 901.902 121.736 802.867 121.736 680.701H114.428C114.428 806.903 216.735 909.21 342.937 909.21V901.902ZM680.218 901.902H342.937V909.21H680.218V901.902ZM901.419 680.701C901.419 802.867 802.384 901.902 680.218 901.902V909.21C806.42 909.21 908.727 806.903 908.727 680.701H901.419ZM901.419 343.42V680.701H908.727V343.42H901.419ZM680.218 122.219C802.384 122.219 901.419 221.254 901.419 343.42H908.727C908.727 217.218 806.42 114.911 680.218 114.911V122.219ZM76.7652 343.42C76.7652 196.417 195.934 77.2481 342.937 77.2481V69.9404C191.898 69.9404 69.4574 192.381 69.4574 343.42H76.7652ZM76.7652 680.701V343.42H69.4574V680.701H76.7652ZM342.937 946.873C195.934 946.873 76.7652 827.704 76.7652 680.701H69.4574C69.4574 831.74 191.898 954.18 342.937 954.18V946.873ZM680.218 946.873H342.937V954.18H680.218V946.873ZM946.39 680.701C946.39 827.703 827.221 946.873 680.218 946.873V954.18C831.257 954.18 953.698 831.739 953.698 680.701H946.39ZM946.39 343.42V680.701H953.698V343.42H946.39ZM680.218 77.2481C827.221 77.2481 946.39 196.417 946.39 343.42H953.698C953.698 192.381 831.257 69.9404 680.218 69.9404V77.2481ZM342.937 77.2481H680.218V69.9404H342.937V77.2481ZM576.832 372.987H716.591V365.679H576.832V372.987ZM548.741 400.982C548.741 385.531 561.307 372.987 576.832 372.987V365.679C557.292 365.679 541.433 381.474 541.433 400.982H548.741ZM576.832 428.977C561.307 428.977 548.741 416.433 548.741 400.982H541.433C541.433 420.49 557.292 436.285 576.832 436.285V428.977ZM716.591 428.977H576.832V436.285H716.591V428.977ZM744.682 400.982C744.682 416.433 732.116 428.977 716.591 428.977V436.285C736.131 436.285 751.99 420.49 751.99 400.982H744.682ZM716.591 372.987C732.116 372.987 744.682 385.531 744.682 400.982H751.99C751.99 381.474 736.131 365.679 716.591 365.679V372.987ZM716.591 649.068H576.832V656.376H716.591V649.068ZM751.99 684.371C751.99 664.863 736.131 649.068 716.591 649.068V656.376C732.116 656.376 744.682 668.92 744.682 684.371H751.99ZM716.591 719.673C736.131 719.673 751.99 703.878 751.99 684.371H744.682C744.682 699.821 732.116 712.366 716.591 712.366V719.673ZM576.832 719.673H716.591V712.366H576.832V719.673ZM541.433 684.371C541.433 703.878 557.292 719.673 576.832 719.673V712.366C561.307 712.366 548.741 699.821 548.741 684.371H541.433ZM576.832 649.068C557.292 649.068 541.433 664.863 541.433 684.371H548.741C548.741 668.92 561.307 656.376 576.832 656.376V649.068ZM443.25 593.991C452.864 581.63 470.497 579.438 482.624 589.003L487.15 583.265C471.79 571.15 449.547 573.991 437.482 589.504L443.25 593.991ZM370.658 687.102L443.247 593.994L437.484 589.501L364.895 682.609L370.658 687.102ZM330.544 652.79L365.193 687.439L370.36 682.272L335.711 647.622L330.544 652.79ZM290.803 652.79C301.764 641.828 319.582 641.828 330.544 652.79L335.711 647.622C321.896 633.807 299.451 633.807 285.635 647.622L290.803 652.79ZM290.803 692.531C279.841 681.569 279.841 663.751 290.803 652.79L285.635 647.622C271.82 661.438 271.82 683.883 285.635 697.698L290.803 692.531ZM349.842 751.57L290.803 692.531L285.635 697.698L344.675 756.737L349.842 751.57ZM370.902 759.601C363.321 759.946 355.637 757.365 349.842 751.57L344.675 756.737C352.043 764.105 361.78 767.331 371.233 766.902L370.902 759.601ZM393.351 749.002C387.914 755.968 379.537 759.598 371.067 759.598V766.905C381.568 766.905 392.161 762.405 399.112 753.498L393.351 749.002ZM487.23 628.411L393.348 749.006L399.115 753.495L492.997 632.9L487.23 628.411ZM482.257 589.018C494.618 598.633 496.81 616.266 487.245 628.393L492.982 632.918C505.097 617.558 502.256 595.316 486.743 583.25L482.257 589.018ZM484.887 582.48H484.5V589.788H484.887V582.48ZM487.15 265.613C471.79 253.498 449.547 256.339 437.482 271.852L443.25 276.339C452.864 263.978 470.497 261.786 482.624 271.351L487.15 265.613ZM484.5 272.136H484.887V264.828H484.5V272.136ZM492.982 315.266C505.097 299.906 502.256 277.663 486.743 265.598L482.257 271.366C494.618 280.98 496.81 298.613 487.245 310.74L492.982 315.266ZM399.115 435.842L492.997 315.248L487.23 310.759L393.348 431.353L399.115 435.842ZM371.067 449.253C381.568 449.253 392.161 444.753 399.112 435.846L393.351 431.35C387.914 438.316 379.537 441.945 371.067 441.945V449.253ZM344.675 439.085C352.043 446.453 361.78 449.679 371.233 449.249L370.902 441.949C363.321 442.294 355.637 439.712 349.842 433.918L344.675 439.085ZM285.635 380.046L344.675 439.085L349.842 433.918L290.803 374.879L285.635 380.046ZM285.635 329.97C271.82 343.786 271.82 366.231 285.635 380.046L290.803 374.879C279.841 363.917 279.841 346.099 290.803 335.138L285.635 329.97ZM335.711 329.97C321.896 316.155 299.451 316.155 285.635 329.97L290.803 335.138C301.764 324.176 319.582 324.176 330.544 335.138L335.711 329.97ZM370.36 364.619L335.711 329.97L330.544 335.138L365.193 369.787L370.36 364.619ZM437.484 271.849L364.895 364.956L370.658 369.45L443.247 276.342L437.484 271.849Z" fill="#FEFEFE"/>
</svg>
