<svg width="1025" height="1024" viewBox="0 0 1025 1024" fill="none" xmlns="http://www.w3.org/2000/svg">
<g clip-path="url(#clip0_405_65080)">
<path d="M491.127 3.92466C494.561 2.01801 499.267 -0.0157456 501.684 -0.524185C504.101 -1.03262 509.951 -1.15973 514.784 -0.778404C520.635 -0.397075 525.341 0.746913 530.047 3.162C533.608 4.94153 539.332 9.13616 542.512 12.3139C546.073 16.0001 549.253 20.8303 550.906 25.152C553.45 31.7617 553.577 34.8123 553.704 79.555C553.831 105.485 554.086 127.73 554.467 128.746C554.849 129.763 556.248 130.653 557.647 130.653C559.046 130.653 561.463 131.162 562.989 131.797C564.642 132.433 569.348 133.704 573.546 134.466C577.743 135.356 584.357 137.009 588.172 138.28C591.988 139.424 597.711 141.203 600.891 142.093C604.071 143.11 613.228 146.669 621.241 149.974C629.254 153.406 643.372 160.143 652.402 164.846C661.433 169.549 673.77 176.794 679.748 180.861C685.726 184.929 696.537 192.937 703.914 198.657C711.291 204.504 724.773 216.833 733.803 226.24C742.961 235.519 752.118 245.433 754.153 248.23C756.315 251.026 759.241 254.712 760.894 256.492C762.42 258.271 763.692 260.051 763.692 260.686C763.692 261.195 764.455 262.339 765.219 263.229C766.109 263.991 768.398 266.788 770.179 269.203C771.959 271.618 777.174 279.626 781.753 286.998C786.332 294.37 792.946 306.065 796.38 313.056C799.941 320.047 805.537 332.63 808.844 341.02C812.151 349.409 815.331 358.052 815.84 360.086C816.475 362.12 818.256 368.73 820.037 374.704C821.817 380.678 824.361 391.737 825.76 399.49L826.064 401.173C827.424 408.708 829.13 418.162 829.957 423.006C831.102 429.997 831.738 467.367 832.374 564.097C833.01 682.945 833.392 696.164 835.299 701.376C836.444 704.554 839.115 710.274 841.15 714.087C843.185 717.9 848.145 724.129 852.343 727.942C856.413 731.755 862.009 736.204 864.807 737.984C867.605 739.763 873.583 742.559 878.162 744.212C882.995 745.864 890.372 747.39 895.968 747.644C901.183 747.898 907.288 748.788 909.323 749.423C911.358 750.059 914.919 751.457 916.954 752.474C918.989 753.618 923.187 756.796 926.112 759.719C929.164 762.516 933.234 768.49 935.397 772.939C938.576 779.421 939.212 782.472 939.212 790.099C939.212 797.598 938.576 800.776 935.524 807.258C932.98 812.597 929.8 816.792 925.603 820.351C922.296 823.147 918.099 826.452 916.318 827.596C914.538 828.74 909.705 830.265 905.507 831.028C900.42 831.918 767.254 832.299 511.223 832.299C298.564 832.299 121.645 831.79 118.211 831.282C114.522 830.774 109.053 828.486 104.983 825.943C101.168 823.528 95.8256 818.952 93.1547 815.775C90.4837 812.597 87.4312 807.513 86.4137 804.335C85.269 801.157 84.5059 794.293 84.5059 789.082C84.5059 781.582 85.269 778.023 87.8128 772.557C89.5934 768.744 93.1547 763.405 95.6984 760.736C98.2422 758.067 102.694 754.635 105.492 753.237C108.29 751.838 113.123 749.805 116.303 748.915C119.483 747.898 125.206 747.135 129.022 747.135C132.837 747.135 139.451 745.991 143.648 744.72C147.846 743.322 153.824 740.78 157.003 739C160.183 737.221 166.161 732.772 170.358 728.959C175.954 724.001 179.261 719.553 182.695 712.689C185.239 707.477 187.91 700.995 188.673 698.198C189.564 694.766 190.072 656.887 190.072 577.444C190.072 485.416 190.454 457.198 191.98 439.148C192.998 426.819 195.414 409.405 197.195 400.507C198.975 391.482 202.155 378.263 204.317 370.891C206.352 363.518 210.295 351.824 212.966 344.833C215.51 337.842 221.361 324.623 225.939 315.598C230.391 306.573 236.878 294.498 240.185 288.905C243.619 283.312 247.816 276.702 249.724 274.287C251.504 271.872 254.938 267.042 257.355 263.483C259.772 260.051 264.096 254.331 266.894 250.772C269.819 247.34 274.144 242.255 276.56 239.332C278.977 236.536 288.135 227.384 296.783 218.994C305.432 210.605 315.226 201.835 318.405 199.419C321.585 197.004 326.546 193.064 329.344 190.776C332.142 188.488 335.194 186.581 336.085 186.581C336.848 186.581 337.738 186.073 337.992 185.564C338.12 184.929 342.571 181.624 347.786 178.065C353.001 174.633 363.43 168.532 371.061 164.591C378.566 160.651 390.521 154.804 397.644 151.753C404.894 148.703 414.178 145.144 418.376 143.745C422.573 142.347 430.331 139.932 435.546 138.407C440.761 136.881 446.866 134.975 448.901 134.339C450.936 133.704 453.861 133.195 455.26 133.195C456.659 133.195 459.839 132.433 462.383 131.543C464.927 130.78 467.598 129.509 468.106 129.001C468.742 128.365 469.505 105.485 469.887 78.1567C470.523 30.1093 470.65 28.0755 473.321 22.6098C474.847 19.432 478.154 14.729 480.571 12.1868C483.115 9.51749 487.82 5.8313 491.127 3.92466Z" fill="#21262E"/>
<path d="M406.038 912.378C406.165 903.862 406.547 902.591 409.472 900.048L412.779 897.125H511.35C591.988 897.125 610.43 897.379 613.355 898.904C615.263 899.794 617.553 902.591 618.57 904.879C619.969 908.183 620.224 911.488 619.461 918.734C618.825 923.945 618.189 930.809 617.807 933.987C617.553 937.164 616.154 943.774 614.627 948.604C613.228 953.562 609.794 961.824 606.869 967.035C604.071 972.247 599.11 980 595.803 984.195C592.497 988.39 585.883 994.999 581.05 999.067C576.216 1003.01 568.331 1008.47 563.37 1011.27C558.41 1014.07 550.143 1017.5 544.928 1019.02C539.713 1020.55 529.92 1022.58 523.306 1023.6C513.131 1025 509.57 1025 500.412 1023.6C494.434 1022.58 485.277 1020.55 480.062 1019.02C474.847 1017.62 466.834 1014.32 462.256 1011.78C457.677 1009.36 450.046 1004.15 445.212 1000.21C440.379 996.271 433.511 989.534 429.95 985.339C426.388 981.017 421.047 972.755 418.121 966.908C415.069 961.061 411.635 952.545 410.236 947.969C408.964 943.393 407.437 935.766 406.801 930.809C406.293 925.979 405.911 917.59 406.038 912.378Z" fill="#21262E"/>
</g>
<defs>
<clipPath id="clip0_405_65080">
<rect width="1024" height="1024" fill="white" transform="translate(0.0332031)"/>
</clipPath>
</defs>
</svg>
