<svg width="1025" height="1025" viewBox="0 0 1025 1025" fill="none" xmlns="http://www.w3.org/2000/svg">
<g clip-path="url(#clip0_405_65082)">
<path d="M491.127 4.44248C494.561 2.53584 499.267 0.502081 501.684 -0.00635853C504.101 -0.514798 509.951 -0.641907 514.784 -0.260578C520.635 0.120751 525.341 1.26474 530.047 3.67982C533.608 5.45936 539.332 9.65398 542.512 12.8317C546.073 16.5179 549.253 21.3481 550.906 25.6698C553.45 32.2795 553.577 35.3302 553.704 80.0728C553.831 106.003 554.086 128.247 554.467 129.264C554.849 130.281 556.248 131.171 557.647 131.171C559.046 131.171 561.463 131.679 562.989 132.315C564.642 132.95 569.348 134.222 573.546 134.984C577.743 135.874 584.357 137.526 588.172 138.797C591.988 139.941 597.711 141.721 600.891 142.611C604.071 143.628 613.228 147.187 621.241 150.492C629.254 153.924 643.372 160.66 652.402 165.363C661.433 170.066 673.77 177.312 679.748 181.379C685.726 185.447 696.537 193.455 703.914 199.175C711.291 205.022 724.773 217.351 733.803 226.757C742.961 236.036 752.118 245.951 754.153 248.747C756.315 251.544 759.241 255.23 760.894 257.01C762.42 258.789 763.692 260.569 763.692 261.204C763.692 261.713 764.455 262.857 765.219 263.746C766.109 264.509 768.398 267.305 770.179 269.721C771.959 272.136 777.174 280.144 781.753 287.516C786.332 294.888 792.946 306.582 796.38 313.573C799.941 320.564 805.537 333.148 808.844 341.538C812.151 349.927 815.331 358.57 815.84 360.604C816.475 362.638 818.256 369.247 820.037 375.222C821.817 381.196 824.361 392.254 825.76 400.008L826.064 401.691C827.424 409.226 829.13 418.68 829.957 423.523C831.102 430.514 831.738 467.885 832.374 564.615C833.01 683.463 833.392 696.682 835.299 701.894C836.444 705.071 839.115 710.791 841.15 714.605C843.185 718.418 848.145 724.646 852.343 728.46C856.413 732.273 862.009 736.722 864.807 738.501C867.605 740.281 873.583 743.077 878.162 744.73C882.995 746.382 890.372 747.907 895.968 748.162C901.183 748.416 907.288 749.306 909.323 749.941C911.358 750.577 914.919 751.975 916.954 752.992C918.989 754.136 923.187 757.314 926.112 760.237C929.164 763.034 933.234 769.008 935.397 773.457C938.576 779.939 939.212 782.99 939.212 790.616C939.212 798.116 938.576 801.294 935.524 807.776C932.98 813.115 929.8 817.309 925.603 820.868C922.296 823.665 918.099 826.97 916.318 828.114C914.538 829.258 909.705 830.783 905.507 831.546C900.42 832.435 767.254 832.817 511.223 832.817C298.564 832.817 121.645 832.308 118.211 831.8C114.522 831.291 109.053 829.003 104.983 826.461C101.168 824.046 95.8256 819.47 93.1547 816.293C90.4837 813.115 87.4312 808.03 86.4137 804.853C85.269 801.675 84.5059 794.811 84.5059 789.599C84.5059 782.1 85.269 778.541 87.8128 773.075C89.5934 769.262 93.1547 763.923 95.6984 761.254C98.2422 758.585 102.694 755.153 105.492 753.755C108.29 752.356 113.123 750.323 116.303 749.433C119.483 748.416 125.206 747.653 129.022 747.653C132.837 747.653 139.451 746.509 143.648 745.238C147.846 743.84 153.824 741.298 157.003 739.518C160.183 737.739 166.161 733.29 170.358 729.477C175.954 724.519 179.261 720.07 182.695 713.206C185.239 707.995 187.91 701.512 188.673 698.716C189.564 695.284 190.072 657.405 190.072 577.962C190.072 485.934 190.454 457.716 191.98 439.666C192.998 427.337 195.414 409.923 197.195 401.025C198.975 392 202.155 378.781 204.317 371.408C206.352 364.036 210.295 352.342 212.966 345.351C215.51 338.36 221.361 325.14 225.939 316.116C230.391 307.091 236.878 295.015 240.185 289.423C243.619 283.83 247.816 277.22 249.724 274.805C251.504 272.39 254.938 267.56 257.355 264.001C259.772 260.569 264.096 254.849 266.894 251.29C269.819 247.858 274.144 242.773 276.56 239.85C278.977 237.053 288.135 227.901 296.783 219.512C305.432 211.123 315.226 202.352 318.405 199.937C321.585 197.522 326.546 193.582 329.344 191.294C332.142 189.006 335.194 187.099 336.085 187.099C336.848 187.099 337.738 186.591 337.992 186.082C338.12 185.447 342.571 182.142 347.786 178.583C353.001 175.151 363.43 169.05 371.061 165.109C378.566 161.169 390.521 155.322 397.644 152.271C404.894 149.22 414.178 145.661 418.376 144.263C422.573 142.865 430.331 140.45 435.546 138.925C440.761 137.399 446.866 135.493 448.901 134.857C450.936 134.222 453.861 133.713 455.26 133.713C456.659 133.713 459.839 132.95 462.383 132.061C464.927 131.298 467.598 130.027 468.106 129.518C468.742 128.883 469.505 106.003 469.887 78.6746C470.523 30.6271 470.65 28.5933 473.321 23.1276C474.847 19.9499 478.154 15.2468 480.571 12.7046C483.115 10.0353 487.82 6.34913 491.127 4.44248Z" fill="#FAFDFE"/>
<path d="M406.038 912.896C406.165 904.38 406.547 903.108 409.472 900.566L412.779 897.643H511.35C591.988 897.643 610.43 897.897 613.355 899.422C615.263 900.312 617.553 903.108 618.57 905.396C619.969 908.701 620.224 912.006 619.461 919.251C618.825 924.463 618.189 931.327 617.807 934.505C617.553 937.682 616.154 944.292 614.627 949.122C613.228 954.079 609.794 962.342 606.869 967.553C604.071 972.765 599.11 980.518 595.803 984.713C592.497 988.908 585.883 995.517 581.05 999.585C576.216 1003.53 568.331 1008.99 563.37 1011.79C558.41 1014.58 550.143 1018.02 544.928 1019.54C539.713 1021.07 529.92 1023.1 523.306 1024.12C513.131 1025.52 509.57 1025.52 500.412 1024.12C494.434 1023.1 485.277 1021.07 480.062 1019.54C474.847 1018.14 466.834 1014.84 462.256 1012.3C457.677 1009.88 450.046 1004.67 445.212 1000.73C440.379 996.788 433.511 990.052 429.95 985.857C426.388 981.535 421.047 973.273 418.121 967.426C415.069 961.579 411.635 953.063 410.236 948.487C408.964 943.911 407.437 936.284 406.801 931.327C406.293 926.497 405.911 918.107 406.038 912.896Z" fill="#FAFDFE"/>
</g>
<defs>
<clipPath id="clip0_405_65082">
<rect width="1024" height="1024" fill="white" transform="translate(0.0332031 0.516846)"/>
</clipPath>
</defs>
</svg>
