<svg width="33" height="33" viewBox="0 0 33 33" fill="none" xmlns="http://www.w3.org/2000/svg">
<rect width="33" height="33" rx="5" fill="#3C32CE"/>
<path d="M26.9441 6.14694C26.8473 6.04898 26.7505 6 26.6537 6H20.8455C20.7487 6 20.6519 6 20.6035 6.04898C20.5067 6.09796 20.4583 6.14694 20.4583 6.24489C20.4099 6.34285 20.4099 6.39183 20.4099 6.48979C20.4099 6.58774 20.4583 6.63672 20.5067 6.6857L22.4427 8.64484L21.8619 9.23258L19.829 11.2897L18.0382 13.1019C17.9898 13.1509 17.9414 13.1509 17.893 13.1509C17.8446 13.1509 17.7962 13.1509 17.7478 13.1019C16.2957 12.1223 14.5532 11.6325 12.8108 11.8284C11.0683 11.9754 9.47103 12.759 8.21258 14.0325C7.19614 15.061 6.51851 16.3345 6.1797 17.7548C5.88929 19.1752 5.93769 20.6446 6.42171 21.967C6.90573 23.3384 7.77696 24.5139 8.8902 25.3955C10.0034 26.2771 11.3587 26.8159 12.7624 26.9628C14.166 27.1097 15.6181 26.8159 16.8765 26.1791C18.135 25.5424 19.1998 24.5139 19.9258 23.2894C20.6519 22.0649 20.9907 20.6446 20.9423 19.1752C20.8939 17.7548 20.4583 16.3345 19.6354 15.159C19.587 15.11 19.587 15.061 19.587 15.012C19.587 14.9631 19.6354 14.9141 19.6354 14.8651L21.4263 13.0529L23.4592 10.9958L23.9916 10.457H24.04C24.0884 10.457 24.1368 10.457 24.1852 10.506L26.2181 12.5631C26.2665 12.6121 26.3633 12.6611 26.4117 12.6611C26.5085 12.6611 26.5569 12.6611 26.6537 12.6121C26.7505 12.5631 26.7989 12.5141 26.8473 12.4652C26.8957 12.4162 26.9441 12.3182 26.9441 12.2203V6.34285C27.0409 6.34285 26.9925 6.24489 26.9441 6.14694ZM17.0701 23.1425C16.3441 23.8772 15.4729 24.3669 14.4564 24.5629C13.4884 24.7588 12.4719 24.6608 11.5039 24.269C10.5843 23.8772 9.76144 23.2404 9.22902 22.3588C8.64819 21.5262 8.35778 20.4976 8.35778 19.5181C8.35778 18.5385 8.64819 17.5099 9.22902 16.6773C9.80984 15.8447 10.5843 15.159 11.5039 14.7672C12.4235 14.3753 13.44 14.2774 14.4564 14.4733C15.4245 14.6692 16.3441 15.159 17.0701 15.8937C18.0382 16.8732 18.5706 18.1467 18.5706 19.5181C18.5706 20.8895 17.9898 22.2119 17.0701 23.1425Z" fill="white"/>
</svg>
