<svg width="605" height="613" viewBox="0 0 605 613" fill="none" xmlns="http://www.w3.org/2000/svg">
<path d="M6.89501 460.049L6.8952 460.051C14.2555 535.55 73.1421 594.019 146.766 601.33C212.522 608.583 273.411 611.001 305.096 611.001C336.779 611.001 397.659 608.583 458.528 603.749L458.54 603.748L458.553 603.747C532.195 596.436 591.069 535.538 598.43 462.471L598.431 462.459C603.304 409.249 603.304 363.298 603.304 343.961V343.958V343.955C603.304 324.62 603.304 278.674 598.432 225.468C593.544 162.439 549.787 109.062 488.915 91.723V51.623C488.915 24.3295 466.427 2.01995 438.956 2.01995C411.484 2.01995 388.996 24.3295 388.996 51.623V79.2635C343.457 76.9159 312.314 76.9158 302.663 76.9158C293.011 76.9158 261.868 76.9159 216.329 79.2635V51.623C216.329 24.3295 193.841 2.01995 166.37 2.01995C138.898 2.01995 116.41 24.3295 116.41 51.623V89.307C55.5387 106.646 11.7815 160.022 6.89369 223.05C2.02154 276.257 2.02154 322.203 2.02154 341.539V341.542V341.548C2.02154 360.883 2.02154 409.252 6.89501 460.049ZM156.984 122.921L157.918 122.657V121.687V51.623C157.918 48.2934 159.03 45.6172 160.885 43.7757C162.741 41.9333 165.441 40.8262 168.803 40.8262C172.165 40.8262 174.866 41.9333 176.722 43.7757C178.577 45.6172 179.689 48.2934 179.689 51.623V121.687V123.25L181.222 122.945L205.502 118.125C251.647 113.306 288.078 113.306 309.964 113.306C326.054 113.306 355.496 114.961 390.049 116.904C397.195 117.305 404.559 117.719 412.069 118.134L431.496 120.544L432.937 120.723V119.271V51.623C432.937 48.2934 434.05 45.6172 435.905 43.7757C437.761 41.9333 440.461 40.8262 443.823 40.8262C447.185 40.8262 449.886 41.9333 451.742 43.7757C453.597 45.6172 454.709 48.2934 454.709 51.623V124.103V125.191L455.783 125.369L470.357 127.78C470.362 127.781 470.366 127.781 470.371 127.782C520.928 137.348 559.422 177.964 564.236 230.524L564.236 230.529C569.098 281.2 569.098 327.052 569.098 343.958C569.098 360.864 569.098 406.717 564.236 457.388L564.235 457.398C559.423 512.339 513.679 557.757 458.316 562.536L458.298 562.537L458.28 562.539C395.05 569.782 336.687 572.195 305.096 572.195C273.506 572.195 215.143 569.782 151.913 562.539L151.893 562.537L151.873 562.535C94.099 557.756 50.772 512.359 45.9577 457.398L45.9566 457.388C41.0952 406.716 41.0949 363.279 41.0949 343.958C41.0949 327.052 41.0953 281.2 45.9567 230.529L45.9572 230.524C50.771 177.959 89.2723 137.34 139.836 127.78L139.893 127.769L139.948 127.753L156.984 122.921Z" fill="#3C32CE" stroke="#3C32CE" stroke-width="2.56629"/>
<path d="M159.068 247.319C144.465 247.319 132.296 259.399 132.296 273.895C132.296 288.39 144.465 300.47 159.068 300.47H180.972C195.575 300.47 207.744 288.39 207.744 273.895C207.744 259.399 195.575 247.319 180.972 247.319H159.068Z" fill="#3C32CE"/>
<path d="M132.296 399.528C132.296 385.032 144.465 372.952 159.068 372.952H180.972C195.575 372.952 207.744 385.032 207.744 399.528C207.744 414.024 195.575 426.104 180.972 426.104H159.068C144.465 426.104 132.296 414.024 132.296 399.528Z" fill="#3C32CE"/>
<path d="M295.362 247.319C280.759 247.319 268.59 259.399 268.59 273.895C268.59 288.39 280.759 300.47 295.362 300.47H317.266C331.869 300.47 344.038 288.39 344.038 273.895C344.038 259.399 331.869 247.319 317.266 247.319H295.362Z" fill="#3C32CE"/>
<path d="M404.883 273.895C404.883 259.399 417.052 247.319 431.655 247.319H451.125C465.728 247.319 477.897 259.399 477.897 273.895C477.897 288.39 465.728 300.47 451.125 300.47H429.221C417.052 300.47 404.883 288.39 404.883 273.895Z" fill="#3C32CE"/>
<path d="M295.362 372.952C280.759 372.952 268.59 385.032 268.59 399.528C268.59 414.024 280.759 426.104 295.362 426.104H317.266C331.869 426.104 344.038 414.024 344.038 399.528C344.038 385.032 331.869 372.952 317.266 372.952H295.362Z" fill="#3C32CE"/>
</svg>
