<svg width="40" height="40" viewBox="0 0 40 40" fill="none" xmlns="http://www.w3.org/2000/svg">
<path d="M13.5902 31.3032C16.1525 31.5858 18.5252 31.68 19.7598 31.68C20.9944 31.68 23.3667 31.5858 25.7386 31.3974L25.7395 31.3973C28.6091 31.1125 30.9033 28.7394 31.1901 25.8923L31.1901 25.8918C31.38 23.8184 31.38 22.0278 31.38 21.2744V21.2742V21.2741C31.38 20.5206 31.38 18.7303 31.1901 16.657C30.9997 14.201 29.2946 12.1211 26.9226 11.4454V9.88287C26.9226 8.81933 26.0464 7.95 24.9759 7.95C23.9054 7.95 23.0291 8.81933 23.0291 9.88287V10.9599C21.2546 10.8685 20.0411 10.8684 19.665 10.8684C19.2889 10.8684 18.0754 10.8685 16.3009 10.9599V9.88287C16.3009 8.81933 15.4246 7.95 14.3541 7.95C13.2836 7.95 12.4074 8.81933 12.4074 9.88287V11.3513C10.0354 12.0269 8.33031 14.1068 8.13985 16.5628C7.95 18.6361 7.95 20.4265 7.95 21.1799V21.1801V21.1803C7.95 21.9337 7.95 23.8185 8.1399 25.7979L8.13991 25.798C8.42672 28.7399 10.7213 31.0183 13.5902 31.3032ZM13.5902 31.3032C13.5901 31.3031 13.59 31.3031 13.5899 31.3031L13.5954 31.2534M13.5902 31.3032C13.5903 31.3032 13.5904 31.3032 13.5905 31.3032L13.5954 31.2534M13.5954 31.2534C10.7503 30.971 8.47419 28.7116 8.18967 25.7931M13.5954 31.2534C16.156 31.5359 18.527 31.63 19.7598 31.63C20.9927 31.63 23.3637 31.5359 25.7346 31.3476C28.5797 31.0651 30.8558 28.7116 31.1403 25.8872C31.33 23.8161 31.33 22.0274 31.33 21.2742C31.33 20.5211 31.33 18.7323 31.1403 16.6612C30.9506 14.2135 29.2436 12.1423 26.8726 11.4833L8.18967 25.7931M8.18967 25.7931C8 23.8161 8 21.9332 8 21.1801C8 20.4269 8 18.6382 8.18967 16.5671C8.37935 14.1193 10.0864 12.0482 12.4574 11.3892L8.18967 25.7931ZM13.9884 12.6611L14.0248 12.6508V12.613V9.88287C14.0248 9.75313 14.0681 9.64884 14.1404 9.57708C14.2127 9.50529 14.3179 9.46215 14.4489 9.46215C14.5799 9.46215 14.6852 9.50529 14.7575 9.57708C14.8298 9.64884 14.8731 9.75313 14.8731 9.88287V12.613V12.6739L14.9329 12.6621L15.879 12.4742C17.6771 12.2865 19.0967 12.2865 19.9495 12.2865C20.5765 12.2865 21.7238 12.351 23.0702 12.4266C23.3486 12.4423 23.6356 12.4584 23.9282 12.4746L24.6852 12.5685L24.7414 12.5755V12.5189V9.88287C24.7414 9.75313 24.7847 9.64884 24.857 9.57708C24.9293 9.50529 25.0346 9.46215 25.1656 9.46215C25.2966 9.46215 25.4018 9.50529 25.4741 9.57708C25.5464 9.64884 25.5898 9.75313 25.5898 9.88287V12.7072V12.7496L25.6316 12.7565L26.1995 12.8504C26.1997 12.8505 26.1999 12.8505 26.2001 12.8506C28.1701 13.2233 29.6701 14.806 29.8576 16.854L29.8577 16.8543C30.0471 18.8287 30.0471 20.6154 30.0471 21.2742C30.0471 21.933 30.0471 23.7197 29.8577 25.6942L29.8576 25.6946C29.6701 27.8354 27.8876 29.6052 25.7303 29.7914L25.7289 29.7916C23.265 30.0738 20.9908 30.1678 19.7598 30.1678C18.5288 30.1678 16.2547 30.0738 13.7908 29.7916L13.7892 29.7914C11.538 29.6052 9.84965 27.8362 9.66205 25.6946L9.66201 25.6942C9.47257 23.7197 9.47256 22.0271 9.47256 21.2742C9.47256 20.6154 9.47257 18.8287 9.66201 16.8543L9.66203 16.854C9.84961 14.8058 11.3499 13.223 13.3202 12.8504L13.3202 12.8506L13.3245 12.8494L13.9884 12.6611Z" fill="#FF9934" stroke="#FF9934" stroke-width="0.1"/>
<path d="M14.0696 17.5085C13.5006 17.5085 13.0264 17.9793 13.0264 18.5441C13.0264 19.109 13.5006 19.5797 14.0696 19.5797H14.9231C15.4921 19.5797 15.9663 19.109 15.9663 18.5441C15.9663 17.9793 15.4921 17.5085 14.9231 17.5085H14.0696Z" fill="#FF9934"/>
<path d="M13.0264 23.4396C13.0264 22.8747 13.5006 22.404 14.0696 22.404H14.9231C15.4921 22.404 15.9663 22.8747 15.9663 23.4396C15.9663 24.0044 15.4921 24.4751 14.9231 24.4751H14.0696C13.5006 24.4751 13.0264 24.0044 13.0264 23.4396Z" fill="#FF9934"/>
<path d="M19.3806 17.5085C18.8116 17.5085 18.3374 17.9793 18.3374 18.5441C18.3374 19.109 18.8116 19.5797 19.3806 19.5797H20.2342C20.8032 19.5797 21.2774 19.109 21.2774 18.5441C21.2774 17.9793 20.8032 17.5085 20.2342 17.5085H19.3806Z" fill="#FF9934"/>
<path d="M23.6482 18.5441C23.6482 17.9793 24.1224 17.5085 24.6914 17.5085H25.4501C26.0191 17.5085 26.4933 17.9793 26.4933 18.5441C26.4933 19.109 26.0191 19.5797 25.4501 19.5797H24.5966C24.1224 19.5797 23.6482 19.109 23.6482 18.5441Z" fill="#FF9934"/>
<path d="M19.3806 22.404C18.8116 22.404 18.3374 22.8747 18.3374 23.4396C18.3374 24.0044 18.8116 24.4751 19.3806 24.4751H20.2342C20.8032 24.4751 21.2774 24.0044 21.2774 23.4396C21.2774 22.8747 20.8032 22.404 20.2342 22.404H19.3806Z" fill="#FF9934"/>
</svg>
