<svg width="1025" height="1024" viewBox="0 0 1025 1024" fill="none" xmlns="http://www.w3.org/2000/svg">
<path fill-rule="evenodd" clip-rule="evenodd" d="M368.426 146.285C337.035 146.285 310.87 163.073 293.589 185.768C276.328 208.438 266.57 238.357 266.57 270.094C266.57 301.832 276.328 331.751 293.589 354.42C310.87 377.115 337.035 393.903 368.426 393.903C399.817 393.903 425.982 377.115 443.262 354.42C460.524 331.751 470.282 301.832 470.282 270.094C470.282 238.357 460.524 208.438 443.262 185.768C425.982 163.073 399.817 146.285 368.426 146.285ZM631.292 146.285C599.902 146.285 573.737 163.073 556.456 185.768C539.195 208.438 529.436 238.357 529.436 270.094C529.436 301.832 539.195 331.751 556.456 354.42C573.737 377.115 599.902 393.903 631.292 393.903C662.684 393.903 688.848 377.115 706.127 354.42C723.388 331.751 733.147 301.832 733.147 270.094C733.147 238.357 723.388 208.438 706.127 185.768C688.848 163.073 662.684 146.285 631.292 146.285ZM821.09 379.918C756.625 379.918 715.676 442.329 715.676 503.726C715.676 565.124 756.625 627.536 821.09 627.536C885.561 627.536 926.509 565.124 926.509 503.726C926.509 442.329 885.561 379.918 821.09 379.918ZM178.593 379.918C114.124 379.918 73.1758 442.329 73.1758 503.726C73.1758 565.124 114.124 627.536 178.593 627.536C243.061 627.536 284.009 565.124 284.009 503.726C284.009 442.329 243.061 379.918 178.593 379.918ZM499.845 497.518C425.729 497.518 370.951 537.26 335.916 586.484C301.38 635.006 284.015 695.139 284.015 744.022C284.015 801.233 318.415 840.961 360.396 864.77C401.736 888.21 453.484 898.503 499.845 898.503C546.207 898.503 597.955 888.21 639.295 864.77C681.276 840.961 715.676 801.233 715.676 744.022C715.676 695.139 698.308 635.006 663.775 586.484C628.74 537.26 573.962 497.518 499.845 497.518Z" stroke="#21262E" stroke-width="54.8083"/>
</svg>
