<svg width="1025" height="1025" viewBox="0 0 1025 1025" fill="none" xmlns="http://www.w3.org/2000/svg">
<path d="M502.457 951.372C524.063 951.372 542.408 933.842 542.408 912.643V552.67H891.782C912.981 552.67 931.326 534.325 931.326 512.719C931.326 490.705 912.981 472.767 891.782 472.767H542.408V112.387C542.408 91.1877 524.063 73.6578 502.457 73.6578C480.442 73.6578 462.505 91.1877 462.505 112.387V472.767H113.131C91.9325 472.767 73.1797 490.705 73.1797 512.719C73.1797 534.325 91.9325 552.67 113.131 552.67H462.505V912.643C462.505 933.842 480.442 951.372 502.457 951.372Z" fill="#FF9934"/>
</svg>
