<svg width="1025" height="1024" viewBox="0 0 1025 1024" fill="none" xmlns="http://www.w3.org/2000/svg">
<path d="M502.457 950.857C524.063 950.857 542.408 933.327 542.408 912.129V552.156H891.782C912.981 552.156 931.326 533.811 931.326 512.204C931.326 490.19 912.981 472.252 891.782 472.252H542.408V111.872C542.408 90.6729 524.063 73.1431 502.457 73.1431C480.442 73.1431 462.505 90.6729 462.505 111.872V472.252H113.131C91.9325 472.252 73.1797 490.19 73.1797 512.204C73.1797 533.811 91.9325 552.156 113.131 552.156H462.505V912.129C462.505 933.327 480.442 950.857 502.457 950.857Z" fill="#3C32CE"/>
</svg>
