<svg width="1024" height="590" viewBox="0 0 1024 590" fill="none" xmlns="http://www.w3.org/2000/svg">
<path fill-rule="evenodd" clip-rule="evenodd" d="M192.634 165.624C188.054 177.132 189.815 191.068 197.84 199.876C201.911 204.338 207.548 207.392 214.477 207.979C220.231 208.488 226.729 207.313 233.815 204.143C236.555 211.424 240.274 216.865 244.697 220.584C250.021 225.085 256.127 226.925 262.156 226.69C274.056 226.221 285.212 217.648 290.145 206.296V206.256C297.112 189.581 293.355 170.673 287.17 155.955C284.038 148.517 280.241 141.902 276.6 136.93C274.8 134.425 272.96 132.272 271.277 130.589C269.672 128.984 267.871 127.535 266.07 126.792C264.27 126.048 261.999 125.813 259.69 125.774C257.302 125.774 254.483 125.97 251.43 126.439C245.323 127.379 237.925 129.297 230.448 132.311C215.612 138.3 199.563 148.948 192.595 165.585V165.624H192.634Z" fill="#3C32CE"/>
<path fill-rule="evenodd" clip-rule="evenodd" d="M265.522 50.6147C258.946 47.8745 251.978 49.088 246.38 52.3371C240.782 55.5861 236.124 60.9882 233.345 67.6428C230.565 74.2975 230.017 81.422 231.622 87.6852C233.266 93.9485 237.259 99.7419 243.836 102.482C250.412 105.222 257.38 104.009 262.978 100.76C268.575 97.5107 273.234 92.1086 276.013 85.4539C278.792 78.7992 279.34 71.6748 277.735 65.4116C276.091 59.1483 272.099 53.3548 265.522 50.6147Z" fill="#3C32CE"/>
<path fill-rule="evenodd" clip-rule="evenodd" d="M320.6 73.554C314.023 70.8138 307.055 72.0273 301.457 75.2764C295.86 78.5254 291.201 83.9275 288.422 90.5822C285.643 97.2369 285.095 104.361 286.7 110.625C288.344 116.888 292.337 122.681 298.913 125.421C305.489 128.162 312.457 126.948 318.055 123.699C323.653 120.45 328.311 115.048 331.09 108.393C333.87 101.739 334.418 94.6141 332.813 88.3509C331.169 82.0877 327.176 76.2942 320.6 73.554Z" fill="#3C32CE"/>
<path fill-rule="evenodd" clip-rule="evenodd" d="M339.937 139.083C326.432 133.446 312.379 142.959 307.016 155.798C301.653 168.677 304.785 185.314 318.29 190.951C331.795 196.588 345.848 187.075 351.211 174.236C356.574 161.396 353.442 144.72 339.937 139.083Z" fill="#3C32CE"/>
<path d="M216.635 118.154C222.61 103.828 217.571 88.0916 205.38 83.0068C193.188 77.9219 178.461 85.4139 172.486 99.7404C166.51 114.067 171.55 129.803 183.741 134.888C195.933 139.973 210.66 132.481 216.635 118.154Z" fill="#3C32CE"/>
<path d="M0.0391237 230.605V0H72.4186V177.641H154.193L150.827 230.605H0H0.0391237Z" fill="#3C32CE"/>
<path d="M423.004 230.605L364.364 62.7109H442.106L471.27 163.275L499.767 62.7109H561.108L504.465 230.605H423.004Z" fill="#3C32CE"/>
<path d="M678.074 186.371C684.572 186.371 691.423 185.706 698.704 184.375C705.945 183.044 713.383 180.578 720.977 177.016L729.041 220.232C720.781 224.46 711.778 227.709 702.07 229.94C692.362 232.171 681.245 233.306 668.718 233.306C646.131 233.306 627.224 229.627 611.918 222.228C596.613 214.869 585.065 204.691 577.236 191.734C569.407 178.777 565.492 163.824 565.492 146.835C565.492 129.846 569.681 114.227 578.058 101.27C586.435 88.3124 597.67 78.2521 611.723 71.0885C625.815 63.9249 641.317 60.3627 658.306 60.3627C683.554 60.3627 702.892 68.2309 716.28 84.0064C729.667 99.7428 736.4 122.173 736.4 151.219L636.541 163.941C643.9 178.934 657.758 186.41 678.113 186.41L678.074 186.371ZM631.139 133.095L683.75 122.016C682.85 114.853 680.384 109.568 676.391 106.084C672.359 102.64 667.348 100.878 661.32 100.878C652.395 100.878 645.27 103.971 640.025 110.077C634.779 116.223 631.804 123.856 631.139 133.016V133.095Z" fill="#3C32CE"/>
<path d="M1.48737 523.646V293.041H71.205L128.866 404.997L185.157 293.041H254.875V523.646H185.157V403L142.606 483.444H114.108L71.205 403V523.646H1.48737Z" fill="#3C32CE"/>
<path d="M376.186 589.019C367.691 589.019 359.745 588.471 352.385 587.335C345.026 586.2 339.193 584.869 334.966 583.303L340.329 534.685C344.361 535.585 348.706 536.29 353.403 536.877C358.101 537.425 362.681 537.699 367.143 537.699C382.097 537.699 392.901 534.568 399.477 528.304C406.054 522.041 409.381 512.451 409.381 499.494V480.391C404.018 494.013 396.424 503.917 386.598 510.063C376.773 516.209 365.147 519.262 351.759 519.262C330.973 519.262 314.884 511.707 303.493 496.636C292.102 481.565 286.386 460.27 286.386 432.79V355.713H357.083V436.47C357.083 456.355 364.129 466.298 378.182 466.298C386.911 466.298 393.879 462.736 399.125 455.573C404.37 448.409 406.993 439.053 406.993 427.427V355.713H477.689V484.423C477.689 520.162 468.882 546.546 451.227 563.535C433.573 580.524 408.559 589.019 376.146 589.019H376.186Z" fill="#3C32CE"/>
<path d="M512.92 523.647V292.729H591.014C628.985 292.729 657.64 298.914 676.977 311.323C696.315 323.732 705.984 341.973 705.984 366.126C705.984 382.88 701.795 397.129 693.418 408.873C685.041 420.616 673.259 429.541 658.07 435.687C642.882 441.833 624.993 444.886 604.441 444.886H587.022V523.647H512.959H512.92ZM601.388 398.303C613.21 398.303 622.37 395.837 628.868 390.944C635.366 386.051 638.576 378.653 638.576 368.827C638.576 359.667 635.444 352.817 629.181 348.237C622.918 343.657 613.875 341.347 602.053 341.347H586.983V398.343H601.388V398.303Z" fill="#3C32CE"/>
<path d="M827.609 479.412C834.068 479.412 840.957 478.746 848.238 477.416C855.48 476.085 862.918 473.618 870.512 470.056L878.537 513.272C870.277 517.5 861.274 520.749 851.566 522.981C841.857 525.212 830.74 526.347 818.214 526.347C795.627 526.347 776.72 522.667 761.414 515.269C746.108 507.91 734.56 497.732 726.731 484.775C718.902 471.818 714.988 456.864 714.988 439.875C714.988 422.886 719.176 407.267 727.553 394.31C735.931 381.353 747.165 371.293 761.218 364.129C775.311 356.966 790.812 353.403 807.801 353.403C833.05 353.403 852.388 361.272 865.775 377.047C879.163 392.784 885.896 415.214 885.896 444.259L786.036 456.982C793.396 471.974 807.253 479.451 827.609 479.451V479.412ZM780.674 426.135L833.285 415.057C832.384 407.894 829.918 402.609 825.925 399.125C821.893 395.68 816.883 393.919 810.854 393.919C801.929 393.919 794.805 397.011 789.559 403.118C784.314 409.264 781.339 416.897 780.674 426.057V426.135Z" fill="#3C32CE"/>
<path d="M981.136 526.347C965.282 526.347 952.364 523.685 942.421 518.322C932.478 512.959 925.276 505.717 920.813 496.557C916.35 487.397 914.119 477.102 914.119 465.711V397.324H892.668V355.752H919.13L950.289 302.789H984.816V355.752H1023.69V397.324H984.816V455.964C984.816 461.092 986.499 465.085 989.826 467.864C993.153 470.643 997.538 472.052 1002.9 472.052C1008.26 472.052 1013.63 470.722 1018.99 468.021L1024 514.603C1018.64 518.4 1011.83 521.297 1003.57 523.333C995.306 525.329 987.83 526.347 981.097 526.347H981.136Z" fill="#3C32CE"/>
</svg>
