<svg width="1025" height="1024" viewBox="0 0 1025 1024" fill="none" xmlns="http://www.w3.org/2000/svg">
<path fill-rule="evenodd" clip-rule="evenodd" d="M73.1113 342.903C73.1113 193.883 193.916 73.0775 342.937 73.0775H680.218C829.239 73.0775 950.044 193.882 950.044 342.903V680.184C950.044 829.205 829.239 950.01 680.218 950.01H342.937C193.916 950.01 73.1113 829.205 73.1113 680.185V342.903ZM716.593 346.705H576.835C559.303 346.705 545.09 360.875 545.09 378.354C545.09 395.833 559.303 410.003 576.835 410.003H716.593C734.126 410.003 748.339 395.833 748.339 378.354C748.339 360.875 734.126 346.705 716.593 346.705ZM576.835 630.094H716.593C734.126 630.094 748.339 644.263 748.339 661.743C748.339 679.222 734.126 693.391 716.593 693.391H576.835C559.303 693.391 545.09 679.222 545.09 661.743C545.09 644.263 559.303 630.094 576.835 630.094ZM484.887 563.501C471.143 552.661 451.205 555.178 440.365 569.115L367.776 662.222L333.127 627.573C320.739 615.185 300.607 615.185 288.219 627.573C275.83 639.962 275.83 660.093 288.219 672.481L347.258 731.521C353.839 738.102 362.55 741.006 371.067 740.619C380.552 740.619 390.037 736.553 396.231 728.617L490.113 608.022C500.953 594.279 498.437 574.341 484.5 563.501H484.887ZM440.365 251.467C451.205 237.53 471.143 235.014 484.887 245.854H484.5C498.437 256.694 500.953 276.632 490.113 290.375L396.231 410.97C390.037 418.906 380.552 422.971 371.067 422.971C362.55 423.358 353.839 420.455 347.258 413.873L288.219 354.834C275.83 342.446 275.83 322.314 288.219 309.926C300.607 297.537 320.739 297.537 333.127 309.926L367.776 344.575L440.365 251.467Z" fill="#3C32CE"/>
</svg>
