<svg width="1025" height="1025" viewBox="0 0 1025 1025" fill="none" xmlns="http://www.w3.org/2000/svg">
<path fill-rule="evenodd" clip-rule="evenodd" d="M73.1113 343.42C73.1113 194.399 193.916 73.5942 342.937 73.5942H680.218C829.239 73.5942 950.044 194.399 950.044 343.42V680.701C950.044 829.721 829.239 950.527 680.218 950.527H342.937C193.916 950.527 73.1113 829.722 73.1113 680.701V343.42ZM716.593 347.223H576.835C559.303 347.223 545.09 361.392 545.09 378.871C545.09 396.351 559.303 410.52 576.835 410.52H716.593C734.126 410.52 748.339 396.351 748.339 378.871C748.339 361.392 734.126 347.223 716.593 347.223ZM576.835 630.611H716.593C734.126 630.611 748.339 644.781 748.339 662.26C748.339 679.739 734.126 693.909 716.593 693.909H576.835C559.303 693.909 545.09 679.739 545.09 662.26C545.09 644.781 559.303 630.611 576.835 630.611ZM484.887 564.018C471.143 553.179 451.205 555.695 440.365 569.632L367.776 662.74L333.127 628.09C320.739 615.702 300.607 615.702 288.219 628.09C275.83 640.479 275.83 660.61 288.219 672.999L347.258 732.038C353.839 738.619 362.55 741.523 371.067 741.136C380.552 741.136 390.037 737.071 396.231 729.134L490.113 608.54C500.953 594.796 498.437 574.858 484.5 564.018H484.887ZM440.365 251.985C451.205 238.048 471.143 235.531 484.887 246.371H484.5C498.437 257.211 500.953 277.149 490.113 290.893L396.231 411.487C390.037 419.424 380.552 423.489 371.067 423.489C362.55 423.876 353.839 420.972 347.258 414.391L288.219 355.352C275.83 342.963 275.83 322.832 288.219 310.443C300.607 298.055 320.739 298.055 333.127 310.443L367.776 345.092L440.365 251.985Z" fill="#FF9934"/>
</svg>
